<svg xmlns="http://www.w3.org/2000/svg" viewBox="0 0 35.53 35.53"><defs><style>.cls-1{fill:#fff;}</style></defs><g id="Layer_2" data-name="Layer 2"><g id="mobile"><path class="cls-1" d="M25.79,17l-.86,1.72a.46.46,0,0,0-.05.2l-1,9.16a1.1,1.1,0,0,1-2.17,0l-1.3-8.65a2.65,2.65,0,0,0-5.25,0l-1.3,8.65A1.09,1.09,0,0,1,12.6,29a1.1,1.1,0,0,1-.93-1l-1-9.16a.66.66,0,0,0-.06-.2L9.74,17a13.75,13.75,0,0,1-1.45-6.13,4.35,4.35,0,0,1,6-4,8.79,8.79,0,0,0,6.9,0,4.33,4.33,0,0,1,6,4A13.84,13.84,0,0,1,25.8,17ZM22.92,5.33a5.41,5.41,0,0,0-2.17.45,7.64,7.64,0,0,1-6,0A5.51,5.51,0,0,0,7.55,8.67a5.57,5.57,0,0,0-.44,2.17A15,15,0,0,0,8.68,17.5l.81,1.62,1,9.06a2.28,2.28,0,0,0,4.52.09l1.29-8.66A1.47,1.47,0,0,1,18,18.38a1.45,1.45,0,0,1,1.24,1.23l1.3,8.66A2.28,2.28,0,0,0,25,28.18l1-9.06.81-1.62a15,15,0,0,0,1.58-6.66,5.51,5.51,0,0,0-5.51-5.51Z"/><path class="cls-1" d="M9.48,11.61v.83h1.18v-.83a3.41,3.41,0,0,1,1.51-2.83l-.65-1a4.54,4.54,0,0,0-2,3.81Z"/><polygon class="cls-1" points="17.18 0 18.36 0 18.36 2.37 17.18 2.37 17.18 0 17.18 0"/><polygon class="cls-1" points="17.18 33.17 18.36 33.17 18.36 35.53 17.18 35.53 17.18 33.17 17.18 33.17"/><polygon class="cls-1" points="7.4 3.2 8.88 2.75 10.58 4.29 9.1 4.73 7.4 3.2 7.4 3.2"/><polygon class="cls-1" points="24.95 31.4 25.98 30.81 27.16 32.86 26.14 33.45 24.95 31.4 24.95 31.4"/><polygon class="cls-1" points="2.08 9.4 2.68 8.37 4.73 9.55 4.14 10.58 2.08 9.4 2.08 9.4"/><polygon class="cls-1" points="30.81 25.98 31.4 24.95 33.45 26.14 32.86 27.16 30.81 25.98 30.81 25.98"/><polygon class="cls-1" points="0 17.18 2.37 17.18 2.37 18.36 0 18.36 0 17.18 0 17.18"/><polygon class="cls-1" points="33.17 17.18 35.53 17.18 35.53 18.36 33.17 18.36 33.17 17.18 33.17 17.18"/><polygon class="cls-1" points="2.08 26.14 4.14 24.96 4.73 25.98 2.68 27.17 2.08 26.14 2.08 26.14"/><polygon class="cls-1" points="30.81 9.55 32.86 8.37 33.45 9.4 31.4 10.58 30.81 9.55 30.81 9.55"/><polygon class="cls-1" points="8.37 32.86 9.56 30.81 10.58 31.4 9.4 33.45 8.37 32.86 8.37 32.86"/><polygon class="cls-1" points="24.95 4.14 26.14 2.08 27.16 2.68 25.98 4.73 24.95 4.14 24.95 4.14"/><path class="cls-1" d="M28.23,6.85a3.43,3.43,0,0,0,.85.85,3.57,3.57,0,0,0-.85.84,3.57,3.57,0,0,0-.85-.84,3.43,3.43,0,0,0,.85-.85ZM25.76,8.28a2.29,2.29,0,0,1,1.89,1.89.59.59,0,0,0,1.16,0A2.31,2.31,0,0,1,30.7,8.28a.59.59,0,0,0,0-1.16,2.32,2.32,0,0,1-1.89-1.89.58.58,0,0,0-.68-.48.57.57,0,0,0-.48.48,2.31,2.31,0,0,1-1.89,1.89.59.59,0,0,0,0,1.16Z"/></g></g></svg>