<svg xmlns="http://www.w3.org/2000/svg" viewBox="0 0 58.2 58.2"><defs><style>.cls-1{fill:none;stroke:#fff;stroke-miterlimit:10;stroke-width:0.46px;}.cls-2{fill:#fff;}</style></defs><g id="Layer_2" data-name="Layer 2"><g id="mobile"><circle class="cls-1" cx="29.1" cy="29.1" r="28.87"/><path class="cls-2" d="M37.2,28.44l-.86,1.72a.66.66,0,0,0-.06.2l-1,9.16a1.08,1.08,0,0,1-1.2,1,1.09,1.09,0,0,1-1-.92L31.8,30.91a2.66,2.66,0,0,0-5.26,0l-1.29,8.65a1.1,1.1,0,0,1-1.25.92,1.08,1.08,0,0,1-.92-1l-1-9.16a.66.66,0,0,0-.06-.2l-.86-1.72a13.85,13.85,0,0,1-1.45-6.13,4.35,4.35,0,0,1,6-4,8.79,8.79,0,0,0,6.9,0,4.33,4.33,0,0,1,6,4,13.85,13.85,0,0,1-1.45,6.13ZM34.32,16.8a5.44,5.44,0,0,0-2.17.45,7.64,7.64,0,0,1-6,0,5.5,5.5,0,0,0-7.67,5.06A15,15,0,0,0,20.08,29l.81,1.62,1,9.06a2.28,2.28,0,0,0,4.52.09l1.3-8.66a1.47,1.47,0,0,1,2.91,0l1.29,8.66a2.28,2.28,0,0,0,4.52-.09l1-9.06L38.26,29a15,15,0,0,0,1.57-6.66,5.51,5.51,0,0,0-5.51-5.51Z"/><path class="cls-2" d="M20.88,23.08v.83h1.18v-.83a3.39,3.39,0,0,1,1.52-2.83l-.66-1a4.57,4.57,0,0,0-2,3.81Z"/><polygon class="cls-2" points="28.58 11.47 29.76 11.47 29.76 13.84 28.58 13.84 28.58 11.47 28.58 11.47"/><polygon class="cls-2" points="28.58 44.64 29.76 44.64 29.76 47.01 28.58 47.01 28.58 44.64 28.58 44.64"/><polygon class="cls-2" points="18.8 14.67 20.28 14.22 21.98 15.76 20.51 16.2 18.8 14.67 18.8 14.67"/><polygon class="cls-2" points="36.36 42.87 37.38 42.28 38.57 44.33 37.54 44.92 36.36 42.87 36.36 42.87"/><polygon class="cls-2" points="13.49 20.87 14.08 19.84 16.13 21.03 15.54 22.05 13.49 20.87 13.49 20.87"/><polygon class="cls-2" points="42.21 37.45 42.8 36.42 44.85 37.61 44.26 38.63 42.21 37.45 42.21 37.45"/><polygon class="cls-2" points="11.4 28.64 13.77 28.64 13.77 29.83 11.4 29.83 11.4 28.64 11.4 28.64"/><polygon class="cls-2" points="44.57 28.64 46.94 28.64 46.94 29.83 44.57 29.83 44.57 28.64 44.57 28.64"/><polygon class="cls-2" points="13.49 37.61 15.54 36.43 16.13 37.45 14.08 38.64 13.49 37.61 13.49 37.61"/><polygon class="cls-2" points="42.21 21.02 44.26 19.84 44.85 20.87 42.8 22.05 42.21 21.02 42.21 21.02"/><polygon class="cls-2" points="19.77 44.33 20.96 42.28 21.98 42.87 20.8 44.92 19.77 44.33 19.77 44.33"/><polygon class="cls-2" points="36.36 15.61 37.54 13.55 38.57 14.15 37.38 16.2 36.36 15.61 36.36 15.61"/><path class="cls-2" d="M39.63,18.32a3.43,3.43,0,0,0,.85.85,3.43,3.43,0,0,0-.85.85,3.39,3.39,0,0,0-.84-.85,3.39,3.39,0,0,0,.84-.85Zm-2.46,1.43a2.29,2.29,0,0,1,1.88,1.89.58.58,0,0,0,.68.48.6.6,0,0,0,.49-.48,2.28,2.28,0,0,1,1.88-1.89.58.58,0,0,0,.48-.68.57.57,0,0,0-.48-.48,2.29,2.29,0,0,1-1.88-1.89.59.59,0,0,0-.69-.48.58.58,0,0,0-.48.48,2.31,2.31,0,0,1-1.88,1.89.59.59,0,0,0-.49.68.58.58,0,0,0,.49.48Z"/></g></g></svg>