<svg xmlns="http://www.w3.org/2000/svg" viewBox="0 0 58.2 58.2"><defs><style>.cls-1{fill:none;stroke:#fff;stroke-miterlimit:10;stroke-width:0.46px;}.cls-2{fill:#fff;}</style></defs><g id="Layer_2" data-name="Layer 2"><g id="mobile"><circle class="cls-1" cx="29.1" cy="29.1" r="28.87"/><path class="cls-2" d="M12.34,21.67a.66.66,0,0,0,.63.4.67.67,0,0,0,.6-.44.66.66,0,0,0-.21-.72.64.64,0,0,0-.77,0,.66.66,0,0,0-.25.8Z"/><path class="cls-2" d="M39.35,26.69l.18-.49A9.4,9.4,0,0,0,40,22.77a8,8,0,0,0-2.6-5.41,7.91,7.91,0,0,0-5.3-2.25,9.29,9.29,0,0,0-5.93,2.45.21.21,0,0,1-.27,0A9.53,9.53,0,0,0,20,15.11a8.18,8.18,0,0,0-6.07,3.08.66.66,0,0,0,1,.83,6.82,6.82,0,0,1,5-2.59A8.27,8.27,0,0,1,25,18.57a1.54,1.54,0,0,0,2,0,8,8,0,0,1,5.06-2.12,7,7,0,0,1,6.59,6.4,8.13,8.13,0,0,1-.39,3c-.07.22-.16.45-.25.67a7,7,0,0,0-.8,0A8.52,8.52,0,0,0,28.75,35q0,.33,0,.66c-.65.53-1.18,1-1.62,1.34a1.77,1.77,0,0,1-2.29,0c-.6-.51-1.37-1.14-2.19-1.81-2.95-2.4-7-5.7-8-7.36a9.1,9.1,0,0,1-1.2-3.1l-.06-.36a.65.65,0,0,0-.73-.57.67.67,0,0,0-.57.74c0,.14,0,.28.07.42a10.53,10.53,0,0,0,1.36,3.54c1.1,1.85,5.08,5.1,8.28,7.71.82.66,1.59,1.29,2.17,1.79a3.09,3.09,0,0,0,4,0l1-.85A8.48,8.48,0,1,0,39.35,26.69Zm-2.12,15.5A7.23,7.23,0,1,1,44.39,35a7.21,7.21,0,0,1-7.16,7.23Z"/><path class="cls-2" d="M40.37,32.71h-.9v-.92A1.46,1.46,0,0,0,38,30.33H36.44A1.46,1.46,0,0,0,35,31.79v.92h-.9a1.45,1.45,0,0,0-1.45,1.46v1.58a1.45,1.45,0,0,0,1.45,1.46H35v.92a1.46,1.46,0,0,0,1.45,1.46H38a1.46,1.46,0,0,0,1.45-1.46v-.92h.9a1.45,1.45,0,0,0,1.45-1.46V34.17a1.45,1.45,0,0,0-1.45-1.46Zm.14,3a.15.15,0,0,1-.14.15H38.81a.65.65,0,0,0-.65.66v1.57a.14.14,0,0,1-.14.14H36.44a.14.14,0,0,1-.14-.14V36.56a.65.65,0,0,0-.65-.66H34.09a.15.15,0,0,1-.14-.15V34.17a.14.14,0,0,1,.14-.15h1.56a.66.66,0,0,0,.65-.66V31.79a.15.15,0,0,1,.14-.15H38a.15.15,0,0,1,.14.15v1.57a.66.66,0,0,0,.65.66h1.56a.14.14,0,0,1,.14.15Z"/></g></g></svg>