<svg xmlns="http://www.w3.org/2000/svg" viewBox="0 0 33.56 28.38"><defs><style>.cls-1{fill:#fff;}</style></defs><g id="Layer_2" data-name="Layer 2"><g id="mobile"><path class="cls-1" d="M.2,6.55A.67.67,0,0,0,.83,7a.67.67,0,0,0,.6-.45.65.65,0,0,0-.21-.71.66.66,0,0,0-.77,0,.66.66,0,0,0-.25.8Z"/><path class="cls-1" d="M27.21,11.58l.18-.5a9.34,9.34,0,0,0,.45-3.43,8,8,0,0,0-2.6-5.4A7.91,7.91,0,0,0,20,0,9.26,9.26,0,0,0,14,2.45a.2.2,0,0,1-.27,0A9.58,9.58,0,0,0,7.83,0,8.17,8.17,0,0,0,1.77,3.07.66.66,0,0,0,1.86,4a.65.65,0,0,0,.92-.09,6.85,6.85,0,0,1,5.05-2.6,8.24,8.24,0,0,1,5.06,2.14,1.52,1.52,0,0,0,2,0A8,8,0,0,1,20,1.31a7,7,0,0,1,6.58,6.4,8.1,8.1,0,0,1-.39,3c-.07.23-.16.45-.25.67-.26,0-.53,0-.8,0a8.51,8.51,0,0,0-8.47,8.53c0,.23,0,.45,0,.67-.65.52-1.17,1-1.61,1.33a1.78,1.78,0,0,1-2.3,0c-.59-.5-1.37-1.13-2.19-1.8-2.95-2.41-7-5.71-8-7.36A9,9,0,0,1,1.36,9.57c0-.11,0-.24-.05-.35a.66.66,0,0,0-.74-.57A.65.65,0,0,0,0,9.38c0,.14,0,.28.06.42a10.28,10.28,0,0,0,1.37,3.54c1.09,1.86,5.07,5.11,8.27,7.72.82.66,1.59,1.29,2.17,1.78a3.06,3.06,0,0,0,4,0c.3-.25.63-.53,1-.84A8.48,8.48,0,1,0,27.21,11.58ZM25.09,27.07a7.23,7.23,0,1,1,7.16-7.23,7.2,7.2,0,0,1-7.16,7.23Z"/><path class="cls-1" d="M28.23,17.59h-.9v-.91a1.45,1.45,0,0,0-1.45-1.46H24.3a1.45,1.45,0,0,0-1.45,1.46v.91H22a1.46,1.46,0,0,0-1.45,1.46v1.59A1.46,1.46,0,0,0,22,22.1h.9V23a1.45,1.45,0,0,0,1.45,1.46h1.58A1.45,1.45,0,0,0,27.33,23V22.1h.9a1.46,1.46,0,0,0,1.45-1.46V19.05a1.46,1.46,0,0,0-1.45-1.46Zm.14,3.05a.15.15,0,0,1-.14.15H26.67a.65.65,0,0,0-.65.65V23a.15.15,0,0,1-.14.15H24.3a.15.15,0,0,1-.14-.15V21.44a.65.65,0,0,0-.65-.65H22a.15.15,0,0,1-.14-.15V19.05A.15.15,0,0,1,22,18.9h1.56a.65.65,0,0,0,.65-.65V16.68a.15.15,0,0,1,.14-.15h1.58a.15.15,0,0,1,.14.15v1.57a.65.65,0,0,0,.65.65h1.56a.15.15,0,0,1,.14.15Z"/></g></g></svg>