<!-- Generator: Adobe Illustrator 24.2.1, SVG Export Plug-In  -->
<svg version="1.1" xmlns="http://www.w3.org/2000/svg" xmlns:xlink="http://www.w3.org/1999/xlink" x="0px" y="0px" width="118.7px"
	 height="146.4px" viewBox="0 0 118.7 146.4" style="overflow:visible;enable-background:new 0 0 118.7 146.4;"
	 xml:space="preserve">
<style type="text/css">
	.st0{clip-path:url(#SVGID_2_);}
	.st1{fill:none;stroke:#000000;stroke-width:1.9103;stroke-miterlimit:10;}
	.st2{clip-path:url(#SVGID_4_);}
	.st3{clip-path:url(#SVGID_6_);}
	.st4{clip-path:url(#SVGID_8_);}
</style>
<defs>
</defs>
<g>
	<g>
		<g>
			<defs>
				<rect id="SVGID_1_" width="57.8" height="146.4"/>
			</defs>
			<clipPath id="SVGID_2_">
				<use xlink:href="#SVGID_1_"  style="overflow:visible;"/>
			</clipPath>
			<g class="st0">
				<polygon class="st1" points="28.7,21.2 16.8,22.8 6.6,32.9 5,44.9 8.1,55.9 38.3,86.1 42.4,90.3 47.3,95.2 52.2,100 76.9,124.7 
					87.9,127.8 99.9,126.2 110,116.1 111.6,104.1 108.6,93.1 83.8,68.3 79,63.5 74.1,58.6 69.9,54.4 39.8,24.3 				"/>
				<polygon class="st1" points="111.6,43.3 110,31.4 99.9,21.2 87.9,19.6 76.9,22.7 46.7,52.8 42.5,57 37.7,61.9 32.8,66.8 
					8.1,91.5 5,102.5 6.6,114.5 16.8,124.6 28.7,126.2 39.8,123.2 64.5,98.4 69.4,93.6 74.2,88.7 78.4,84.5 108.6,54.4 				"/>
				<g>
					<polygon class="st1" points="38.9,92.3 48.3,82.9 53.2,78 58,73.2 62.2,69 92.4,38.8 95.5,27.8 93.9,15.8 83.7,5.7 71.7,4.1 
						60.7,7.1 30.5,37.3 26.4,41.5 21.5,46.4 16.6,51.2 7.2,60.7 4.1,71.7 5.7,83.6 15.9,93.8 26.6,104.6 					"/>
					<polygon class="st1" points="39,53.5 48.4,62.9 53.3,67.8 58.1,72.7 62.3,76.8 92.5,107 95.5,118 93.9,130 83.8,140.2 
						71.8,141.8 60.8,138.7 30.6,108.5 26.4,104.4 21.6,99.5 16.7,94.6 5.7,83.6 4.1,71.7 7.3,60.7 16,52 26.7,41.3 					"/>
					<polygon class="st1" points="77.8,92.3 68.3,82.9 63.5,78 58.6,73.2 54.4,69 24.3,38.8 21.2,27.8 22.8,15.8 33,5.7 44.9,4.1 
						55.9,7.1 86.1,37.3 90.3,41.5 95.2,46.3 100,51.2 109.5,60.6 112.5,71.7 110.9,83.6 100.8,93.8 90,104.6 					"/>
					<polygon class="st1" points="77.9,53.3 68.5,62.7 63.6,67.6 58.8,72.4 54.6,76.6 24.4,106.8 21.4,117.8 23,129.8 33.1,139.9 
						45.1,141.5 56.1,138.5 86.3,108.3 90.5,104.1 95.3,99.2 100.2,94.4 110.9,83.6 112.5,71.7 109.6,60.5 100.9,51.8 90.2,41 					
						"/>
				</g>
			</g>
		</g>
		<line class="st1" x1="57" y1="7.9" x2="57" y2="137.9"/>
	</g>
	<g>
		<g>
			<defs>
				
					<rect id="SVGID_3_" x="60.9" transform="matrix(-1 -1.224647e-16 1.224647e-16 -1 179.659 146.4124)" width="57.8" height="146.4"/>
			</defs>
			<clipPath id="SVGID_4_">
				<use xlink:href="#SVGID_3_"  style="overflow:visible;"/>
			</clipPath>
			<g class="st2">
				<polygon class="st1" points="90,125.2 102,123.6 112.1,113.5 113.7,101.5 110.6,90.5 80.5,60.3 76.3,56.1 71.4,51.3 66.6,46.4 
					41.9,21.7 30.8,18.6 18.9,20.2 8.7,30.4 7.1,42.3 10.2,53.4 34.9,78.1 39.8,82.9 44.6,87.8 48.8,92 79,122.1 				"/>
				<polygon class="st1" points="7.1,103.1 8.7,115 18.9,125.2 30.8,126.8 41.9,123.7 72,93.6 76.2,89.4 81.1,84.5 85.9,79.7 
					110.6,54.9 113.7,43.9 112.1,31.9 102,21.8 90,20.2 79,23.3 54.2,48 49.4,52.8 44.5,57.7 40.3,61.9 10.2,92.1 				"/>
				<g>
					<polygon class="st1" points="79.9,54.1 70.4,63.5 65.6,68.4 60.7,73.2 56.5,77.4 26.4,107.6 23.3,118.6 24.9,130.6 35,140.7 
						47,142.3 58,139.3 88.2,109.1 92.4,104.9 97.2,100.1 102.1,95.2 111.5,85.8 114.6,74.7 113,62.8 102.9,52.6 92.1,41.8 					"/>
					<polygon class="st1" points="79.8,92.9 70.3,83.5 65.5,78.6 60.6,73.7 56.4,69.6 26.3,39.4 23.2,28.4 24.8,16.4 35,6.2 
						46.9,4.6 57.9,7.7 88.1,37.9 92.3,42.1 97.2,46.9 102,51.8 113,62.8 114.6,74.7 111.5,85.7 102.8,94.4 92,105.1 					"/>
					<polygon class="st1" points="41,54.1 50.4,63.5 55.3,68.4 60.1,73.3 64.3,77.4 94.5,107.6 97.5,118.6 95.9,130.6 85.8,140.7 
						73.8,142.3 62.8,139.3 32.6,109.1 28.4,104.9 23.6,100.1 18.7,95.2 9.3,85.8 6.2,74.7 7.8,62.8 18,52.6 28.7,41.9 					"/>
					<polygon class="st1" points="40.8,93.1 50.2,83.7 55.1,78.8 60,74 64.1,69.8 94.3,39.6 97.4,28.6 95.8,16.6 85.6,6.5 73.6,4.9 
						62.6,8 32.4,38.1 28.3,42.3 23.4,47.2 18.5,52 7.8,62.8 6.2,74.7 9.1,85.9 17.8,94.6 28.6,105.4 					"/>
				</g>
			</g>
		</g>
		<line class="st1" x1="61.7" y1="138.5" x2="61.7" y2="8.5"/>
	</g>
</g>
</svg>
