<svg xmlns="http://www.w3.org/2000/svg" viewBox="0 0 58.2 58.2"><defs><style>.cls-1{fill:none;stroke:#fff;stroke-miterlimit:10;stroke-width:0.46px;}.cls-2{fill:#fff;}</style></defs><g id="Layer_2" data-name="Layer 2"><g id="mobile"><circle class="cls-1" cx="29.1" cy="29.1" r="28.87"/><path class="cls-2" d="M43.41,16.09H40.78v-.76a2.12,2.12,0,0,0-4.24,0v.76H30.76v-.76a2.13,2.13,0,0,0-4.25,0v.76H20.73v-.76a2.12,2.12,0,0,0-4.24,0v.76H13.84a.6.6,0,0,0-.6.6V43.37a.6.6,0,0,0,.6.6h24.5a.59.59,0,0,0,.42-.17l5.08-5.07A.63.63,0,0,0,44,38.3V16.69a.6.6,0,0,0-.6-.6Zm-5.67-.76a.92.92,0,0,1,1.84,0v.76H37.74Zm-10,0a.92.92,0,0,1,1.84,0v.76H27.71Zm-10,0a.92.92,0,0,1,1.84,0v.76H17.69ZM38.94,41.92v-3h3Zm-.6-4.22a.6.6,0,0,0-.6.6v4.47H14.45V24H25.92a.6.6,0,1,0,0-1.2H14.45V17.29h2v.76a2.13,2.13,0,0,0,2.12,2.13.61.61,0,0,0,0-1.21.92.92,0,0,1-.92-.92v-.76h8.82v.76a2.13,2.13,0,0,0,2.12,2.13.61.61,0,1,0,0-1.21.92.92,0,0,1-.92-.92v-.76h8.83v.76a2.13,2.13,0,0,0,2.12,2.13.61.61,0,0,0,0-1.21.92.92,0,0,1-.92-.92v-.76h5.07v5.53H31.33a.6.6,0,0,0,0,1.2H42.81V37.7Z"/><path class="cls-2" d="M34.28,36.46H33.8V32.92a1.75,1.75,0,0,0-1.74-1.75h-.18V29.73a.6.6,0,0,0-1.2,0v1.44H29.24V29.73a.61.61,0,0,0-1.21,0v1.44H26.59V29.73a.6.6,0,1,0-1.2,0v1.44h-.18a1.75,1.75,0,0,0-1.74,1.75v3.54H23a.6.6,0,1,0,0,1.2h11.3a.6.6,0,0,0,0-1.2Zm-9.61,0V32.92a.54.54,0,0,1,.54-.54h6.85a.54.54,0,0,1,.54.54v3.54Z"/><path class="cls-2" d="M28.63,24a.59.59,0,0,0,.42-.17.64.64,0,0,0,.18-.43.6.6,0,0,0-.18-.42.56.56,0,0,0-.42-.18.58.58,0,0,0-.43.18.59.59,0,0,0-.17.42.63.63,0,0,0,.17.43.61.61,0,0,0,.43.17Z"/></g></g></svg>