<svg xmlns="http://www.w3.org/2000/svg" viewBox="0 0 30.77 30.77"><defs><style>.cls-1{fill:#fff;}</style></defs><g id="Layer_2" data-name="Layer 2"><g id="mobile"><path class="cls-1" d="M30.17,2.88H27.54V2.12a2.13,2.13,0,0,0-4.25,0v.76H17.51V2.12a2.12,2.12,0,0,0-4.24,0v.76H7.49V2.12a2.12,2.12,0,0,0-4.24,0v.76H.6a.6.6,0,0,0-.6.61V30.17a.6.6,0,0,0,.6.6H25.1a.6.6,0,0,0,.42-.18l5.07-5.07a.6.6,0,0,0,.18-.42V3.49a.6.6,0,0,0-.6-.61ZM24.5,2.12a.92.92,0,0,1,1.84,0v.76H24.5Zm-10,0a.92.92,0,0,1,1.84,0v.76H14.47Zm-10,0a.92.92,0,0,1,1.84,0v.76H4.45ZM25.7,28.72v-3h3Zm-.6-4.22a.59.59,0,0,0-.6.6v4.47H1.2V10.82H12.68a.61.61,0,0,0,0-1.21H1.2V4.09H3.25v.76A2.12,2.12,0,0,0,5.37,7a.6.6,0,0,0,0-1.2.92.92,0,0,1-.92-.92V4.09h8.82v.76A2.12,2.12,0,0,0,15.39,7a.6.6,0,0,0,0-1.2.92.92,0,0,1-.92-.92V4.09h8.82v.76A2.13,2.13,0,0,0,25.42,7a.6.6,0,0,0,0-1.2.92.92,0,0,1-.92-.92V4.09h5.07V9.61H18.09a.61.61,0,0,0,0,1.21H29.57V24.5Z"/><path class="cls-1" d="M21,23.26h-.47V19.71A1.74,1.74,0,0,0,18.82,18h-.18V16.53a.61.61,0,1,0-1.21,0V18H16V16.53a.6.6,0,1,0-1.2,0V18H13.35V16.53a.6.6,0,1,0-1.2,0V18H12a1.75,1.75,0,0,0-1.75,1.74v3.55H9.74a.6.6,0,1,0,0,1.2H21a.6.6,0,0,0,0-1.2Zm-9.6,0V19.71a.54.54,0,0,1,.54-.54h6.85a.54.54,0,0,1,.54.54v3.55Z"/><path class="cls-1" d="M15.38,10.82a.62.62,0,0,0,.43-.18.61.61,0,0,0,.17-.42.61.61,0,0,0-.17-.43.6.6,0,1,0-.43,1Z"/></g></g></svg>