<?xml version="1.0" encoding="utf-8"?>
<!-- Generator: Adobe Illustrator 24.2.1, SVG Export Plug-In . SVG Version: 6.00 Build 0)  -->
<svg version="1.1" id="Layer_1" xmlns="http://www.w3.org/2000/svg" xmlns:xlink="http://www.w3.org/1999/xlink" x="0px" y="0px"
	 viewBox="0 0 58.2 58.2" style="enable-background:new 0 0 58.2 58.2;" xml:space="preserve">
<style type="text/css">
	.st0{fill:none;stroke:#FFFFFF;stroke-width:0.46;stroke-miterlimit:10;}
	.st1{fill:#FFFFFF;}
</style>
<circle class="st0" cx="29.1" cy="29.1" r="28.9"/>
<g>
	<path class="st1" d="M45.8,18.9h-1.7v-1.4c0-1.1-0.9-2-2-2h-1.6c-1.1,0-2,0.9-2,2v5.8h-2.7v-1.6c0-1.1-0.9-2.1-2.1-2.1
		c-0.4,0-0.9,0.1-1.2,0.4c-0.3-0.7-1-1.2-1.9-1.2c-0.8,0-1.5,0.4-1.8,1.1c-0.3-0.3-0.8-0.4-1.3-0.4c-0.7,0-1.4,0.4-1.7,0.9
		c-0.4-0.3-0.8-0.5-1.3-0.5c-1.1,0-2.1,0.9-2.1,2.1v1.3h-2.5v-1.5c0-0.3-0.2-0.5-0.5-0.5s-0.5,0.2-0.5,0.5v12.4c0,0.5-0.4,1-1,1
		h-1.6c-0.5,0-1-0.4-1-1V17.4c0-0.5,0.4-1,1-1h1.6c0.5,0,1,0.4,1,1v2.1c0,0.3,0.2,0.5,0.5,0.5s0.5-0.2,0.5-0.5v-2.1c0-1.1-0.9-2-2-2
		h-1.6c-1.1,0-2,0.9-2,2v1.4h-1.7c-0.8,0-1.5,0.7-1.5,1.5v10.9c0,0.8,0.7,1.5,1.5,1.5h1.7v1.4c0,1.1,0.9,2,2,2h1.6c1.1,0,2-0.9,2-2
		v-5.8h1.8v1c0,0.5,0.2,1,0.5,1.4l1.7,2v9.6c0,0.3,0.2,0.5,0.5,0.5s0.5-0.2,0.5-0.5v-9.8c0-0.1,0-0.2-0.1-0.3L22.9,30
		c-0.2-0.2-0.2-0.4-0.2-0.7v-1l10.1,0.1c0.3,0,0.5-0.2,0.5-0.5c0-0.3-0.2-0.5-0.5-0.5h-2.4c-0.5,0-0.9-0.4-0.9-0.9
		c0-0.5,0.4-0.9,0.9-0.9h4.6c0.3,0,0.6,0.3,0.6,0.6v3.2c0,0.3-0.1,0.5-0.2,0.7l-1.8,2.2c-0.1,0.1-0.1,0.2-0.1,0.3v1.4
		c0,0.3,0.2,0.5,0.5,0.5c0.3,0,0.5-0.2,0.5-0.5v-1.2l1.7-2c0.3-0.4,0.5-0.9,0.5-1.4v-1h1.8v5.8c0,1.1,0.9,2,2,2h1.6c1.1,0,2-0.9,2-2
		v-1.4h1.7c0.8,0,1.5-0.7,1.5-1.5V20.4C47.3,19.5,46.6,18.9,45.8,18.9z M12.4,31.7c-0.2,0-0.4-0.2-0.4-0.4V20.4
		c0-0.2,0.2-0.4,0.4-0.4h1.7v11.7H12.4z M33.6,20.7c0.6,0,1,0.4,1,1v2c0,0.3-0.1,0.5-0.3,0.7h-1.3c-0.2-0.2-0.3-0.5-0.3-0.7v-2
		C32.6,21.2,33.1,20.7,33.6,20.7z M29.5,20.9c0-0.6,0.4-1,1-1c0.6,0,1,0.4,1,1v2.8c0,0.3-0.1,0.5-0.3,0.7h-0.9c-0.1,0-0.3,0-0.4,0
		c-0.2-0.2-0.4-0.5-0.4-0.8L29.5,20.9L29.5,20.9z M26.5,21.6c0-0.6,0.4-1,1-1c0.6,0,1,0.4,1,1v2.1c0,0.6-0.4,1-1,1c-0.6,0-1-0.4-1-1
		V21.6z M23.4,22c0-0.6,0.4-1,1-1c0.6,0,1,0.4,1,1v1.7c0,0.6-0.4,1-1,1c-0.6,0-1-0.4-1-1V22z M19.8,24.3h2.7c0.3,0.8,1,1.4,2,1.4
		c0.6,0,1.2-0.3,1.5-0.7c0.4,0.4,0.9,0.7,1.5,0.7c0.4,0,0.8-0.1,1.2-0.4c-0.2,0.3-0.3,0.6-0.3,1c0,0.3,0.1,0.6,0.2,0.8h-8.8V24.3z
		 M36.6,27.3v-1.2c0-0.7-0.4-1.3-1.1-1.5c0-0.1,0-0.1,0.1-0.2h2.8v2.9L36.6,27.3z M46.2,31.2c0,0.2-0.2,0.4-0.4,0.4h-1.7v-1.5
		c0-0.3-0.2-0.5-0.5-0.5c-0.3,0-0.5,0.2-0.5,0.5v4c0,0.5-0.4,1-1,1h-1.6c-0.5,0-1-0.4-1-1V17.4c0-0.5,0.4-1,1-1h1.6c0.5,0,1,0.4,1,1
		v10.4c0,0.3,0.2,0.5,0.5,0.5c0.3,0,0.5-0.2,0.5-0.5v-7.9h1.7c0.2,0,0.4,0.2,0.4,0.4V31.2z"/>
	<path class="st1" d="M33.9,35.6c-0.3,0-0.5,0.2-0.5,0.5v6.1c0,0.3,0.2,0.5,0.5,0.5s0.5-0.2,0.5-0.5v-6.1
		C34.4,35.9,34.2,35.6,33.9,35.6z"/>
</g>
</svg>
