<!-- Generator: Adobe Illustrator 24.2.1, SVG Export Plug-In  -->
<svg version="1.1" xmlns="http://www.w3.org/2000/svg" xmlns:xlink="http://www.w3.org/1999/xlink" x="0px" y="0px" width="75px"
	 height="13.1px" viewBox="0 0 75 13.1" style="overflow:visible;enable-background:new 0 0 75 13.1;" xml:space="preserve">
<style type="text/css">
	.st0{fill:#FFFFFF;}
</style>
<defs>
</defs>
<g>
	<g>
		<polygon class="st0" points="75,11.7 30.3,11.7 31.4,10.4 75,10.4 		"/>
		<path class="st0" d="M34.9,5.1h2.4c0.7,0,1,0.6,1,1.1c0,0.6-0.3,1.2-1,1.2h-2.4V5.1z M36.5,0.2l-1.3,1.5H37c0.5,0,0.8,0.4,0.8,0.9
			c0,0.2-0.1,0.5-0.2,0.6c-0.1,0.2-0.4,0.3-0.6,0.3h-2.1V2l-1.5,1.8v5h3.9c1.7,0,2.6-1.4,2.6-2.7c0-0.9-0.4-1.7-1.1-2.1
			c0.6-0.6,0.8-1.5,0.4-2.4c-0.4-0.9-1.2-1.5-2.2-1.5H36.5z M40.8,0.2v8.7h1.5V1.8H44c0.9,0,1.3,0.7,1.3,1.3c0,0.6-0.4,1.3-1.3,1.3
			h-1.6v0.8l3.1,3.8h2l-2.7-3.2c1.4-0.4,2-1.6,2-2.7c0-1.4-1-2.8-2.9-2.8H40.8z M51.7,2.7l1,2.6h-2L51.7,2.7z M51.1,0.1l-3.5,8.8
			h1.7l0.8-2.1h3.1l0.8,2.1h1.7l-3.4-8.7l0-0.1H51.1z"/>
		<path class="st0" d="M0,0.3h7.8v2.2H2.3v3.1h4.9v2.2H2.3V13H0V0.3z M18.5,8.1c-0.6,1.7-2,2.7-3.8,2.7c-1.1,0-2.1-0.4-2.8-1.2
			c-0.8-0.8-1.2-1.8-1.2-2.9c0-1.1,0.4-2.1,1.2-3c0.8-0.8,1.8-1.2,2.8-1.2c1.8,0,3.1,0.9,3.7,2.6l0.1,0.2h2.3l-0.1-0.3
			c-0.7-2.9-3.1-4.7-6-4.7c-1.6,0-3.2,0.7-4.4,1.9C9.1,3.4,8.4,5,8.4,6.7c0,1.7,0.6,3.3,1.8,4.5c1.2,1.2,2.7,1.9,4.4,1.9
			c2.9,0,5.3-1.9,6-4.9l0.1-0.3h-2.3L18.5,8.1z M28.6,10.8L26.7,13h-4.6V0.3h5.3c1.5,0,2.7,0.8,3.2,2.2C31.2,3.8,30.9,5.1,30,6
			c0.5,0.3,1.1,0.9,1.4,1.4l-0.1,0.1l-2,2.4V9.1c0-0.9-0.5-1.7-1.5-1.7h-3.5v3.4 M24.4,5.2h3c0.4,0,0.7-0.1,0.9-0.4
			c0.2-0.2,0.3-0.6,0.3-0.9c0-0.6-0.4-1.3-1.2-1.3h-3.1V5.2z"/>
		<polygon class="st0" points="56.1,0.2 56.1,1.6 57.6,1.6 57.6,7.4 56.1,7.4 56.1,8.9 60.7,8.9 60.7,7.4 59.2,7.4 59.2,1.6 
			60.7,1.6 60.7,0.2 		"/>
		<path class="st0" d="M69.1,1.2c-0.4,0.5-0.5,1.1-0.5,1.7c0.2,2,2.1,2.2,3.1,2.3c0.9,0.1,1.6,0.2,1.7,0.7c0,0.1,0,0.2,0,0.2
			c0,0.7-0.9,1.2-1.7,1.2c-0.7,0-1.5-0.4-1.6-1h0l0-0.3l-1.6,0l0,0.4c0.2,1.6,1.8,2.4,3.2,2.4c1.6,0,3.3-1,3.3-2.7
			C75,6,75,5.8,75,5.6c-0.3-1.4-1.7-1.8-3-1.9c-1-0.1-1.7-0.2-1.7-0.9c0-0.3,0-0.5,0.2-0.7c0.3-0.3,0.8-0.6,1.4-0.6h0
			c0.6,0,1.3,0.3,1.5,0.9l0,0.1l1.5-0.1l0-0.2C74.6,0.6,73,0,71.8,0C70.7,0,69.7,0.5,69.1,1.2"/>
		<g>
			<path class="st0" d="M61.3,0.2h1.8l3.3,6v-6H68v8.7h-1.7l-3.4-6.1v6.1h-1.6V0.2z"/>
		</g>
	</g>
</g>
</svg>
