<!-- Generator: Adobe Illustrator 24.2.1, SVG Export Plug-In  -->
<svg version="1.1" xmlns="http://www.w3.org/2000/svg" xmlns:xlink="http://www.w3.org/1999/xlink" x="0px" y="0px"  viewBox="0 0 64.8 9.2" style="overflow:visible;enable-background:new 0 0 64.8 9.2;" xml:space="preserve">
<style type="text/css">
	.st0{fill:#FFFFFF;}
</style>
<defs>
</defs>
<g>
	<g>
		<path class="st0" d="M24.7,5.2h2.5c0.7,0,1.1,0.6,1.1,1.2c0,0.6-0.3,1.2-1.1,1.2h-2.5V5.2z M26.2,0.2l-1.3,1.5h1.9
			c0.6,0,0.8,0.5,0.8,0.9c0,0.3-0.1,0.5-0.2,0.7c-0.2,0.2-0.4,0.3-0.6,0.3h-2.1V2l-1.6,1.9v5.2h4.1c1.8,0,2.7-1.4,2.7-2.8
			c0-1-0.4-1.7-1.2-2.2c0.7-0.6,0.8-1.5,0.5-2.5c-0.4-1-1.2-1.5-2.3-1.5H26.2z M53.5,0.2v1.5H55v6h-1.6v1.5h4.8V7.6h-1.6v-6h1.6V0.2
			H53.5z M59.1,0.2v8.9h5.6V7.5h-4V0.2H59.1z M30.7,0.1v9h1.6V1.8H34c0.9,0,1.4,0.7,1.4,1.3c0,0.6-0.4,1.3-1.4,1.3h-1.6v0.8l3.2,3.9
			h2.1l-2.8-3.3C36.4,5.4,37,4.2,37,3.1c0-1.5-1-2.9-3-2.9H30.7z M42,2.7l1,2.7h-2L42,2.7z M41.4,0l-3.6,9.1h1.7l0.8-2.2h3.2
			l0.8,2.2h1.7l-3.5-8.9l0-0.1H41.4z M46.8,1.2c-0.4,0.5-0.6,1.1-0.5,1.8c0.2,2.1,2.1,2.3,3.2,2.4c0.9,0.1,1.6,0.2,1.7,0.7
			c0,0.1,0,0.2,0,0.3c0,0.8-0.9,1.2-1.7,1.2c-0.8,0-1.6-0.4-1.7-1.1h0l0-0.3l-1.6,0l0,0.4c0.2,1.6,1.8,2.5,3.3,2.5
			c1.7,0,3.4-1.1,3.4-2.8c0-0.2,0-0.4-0.1-0.6c-0.3-1.5-1.8-1.8-3.1-2c-1-0.1-1.7-0.2-1.8-0.9c0-0.3,0-0.5,0.2-0.7
			c0.3-0.4,0.8-0.6,1.4-0.6h0c0.7,0,1.4,0.3,1.5,1l0,0.2l1.6-0.1l0-0.2C52.4,0.6,50.8,0,49.5,0C48.4,0,47.3,0.5,46.8,1.2"/>
		<path class="st0" d="M0,0.1h5.5v1.6H1.6v2.2H5v1.5H1.6v3.7H0V0.1z M13,5.6c-0.4,1.2-1.4,1.9-2.7,1.9c-0.7,0-1.4-0.3-2-0.9
			C7.8,6.1,7.5,5.4,7.5,4.6c0-0.8,0.3-1.5,0.8-2.1c0.5-0.6,1.2-0.9,2-0.9c1.2,0,2.2,0.7,2.6,1.8l0,0.1h1.6l-0.1-0.2
			c-0.5-2-2.2-3.3-4.2-3.3C9.1,0.1,8,0.6,7.2,1.4c-0.8,0.9-1.3,2-1.3,3.2c0,1.2,0.5,2.3,1.3,3.2C8,8.7,9.1,9.2,10.3,9.2
			c2.1,0,3.7-1.3,4.2-3.4l0.1-0.2H13L13,5.6z M20.1,7.5l-1.3,1.6h-3.2V0.2h3.8c1,0,1.9,0.6,2.3,1.5c0.4,0.9,0.2,1.9-0.5,2.5
			c0.4,0.2,0.8,0.6,1,1l0,0l-1.4,1.7V6.3c0-0.6-0.4-1.2-1.1-1.2h-2.5v2.4 M17.1,3.6h2.1c0.3,0,0.5-0.1,0.6-0.3
			c0.1-0.2,0.2-0.4,0.2-0.7c0-0.5-0.3-0.9-0.8-0.9h-2.2V3.6z"/>
	</g>
</g>
</svg>
