<svg xmlns="http://www.w3.org/2000/svg" viewBox="0 0 30.11 37.64"><defs><style>.cls-1{fill:#fff;}</style></defs><g id="Layer_2" data-name="Layer 2"><g id="mobile"><path class="cls-1" d="M29.73,6.34,15.31.05a.65.65,0,0,0-.51,0L.38,6.34A.62.62,0,0,0,0,6.91V22a10.22,10.22,0,0,0,4.25,8.26l10,7.16a1.43,1.43,0,0,0,1.67,0l10-7.16A10.21,10.21,0,0,0,30.11,22v-15A.62.62,0,0,0,29.73,6.34ZM28.86,22a9,9,0,0,1-3.73,7.24l-10,7.16a.2.2,0,0,1-.21,0L5,29.19A8.94,8.94,0,0,1,1.25,22V7.32l13.81-6,13.8,6Z"/><path class="cls-1" d="M5.45,18h0a8.21,8.21,0,0,0,.77,1.45h0l.3.37Z"/><path class="cls-1" d="M27.23,8,15.31,2.79a.65.65,0,0,0-.51,0L2.89,8a.64.64,0,0,0-.38.58V22a7.71,7.71,0,0,0,3.2,6.22l9,6.45a.65.65,0,0,0,.73,0l9-6.45A7.69,7.69,0,0,0,27.6,22V8.56A.64.64,0,0,0,27.23,8Zm-.88,11.78V22a6.43,6.43,0,0,1-2.68,5.2l-8.61,6.18L6.44,27.15A6.45,6.45,0,0,1,3.76,22V9l11.3-4.92L26.35,9V18.1l0,0ZM19.59,10a5.73,5.73,0,0,0-4.53,2.14A5.75,5.75,0,0,0,10.53,10,5.12,5.12,0,0,0,5,15.57a6.57,6.57,0,0,0,.36,2.24l.06.19h0l1.09,1.82h0a12.69,12.69,0,0,0,1.57,1.54l.59.53c1.4,1.31,5.78,4.79,6,4.94a.62.62,0,0,0,.77,0c.19-.15,4.57-3.63,6-4.94l.6-.53a11.79,11.79,0,0,0,1.81-1.86l0-.05a7.21,7.21,0,0,0,.77-1.27h0l.18-.47a6.83,6.83,0,0,0,.32-2.15C25.09,12.16,23,10,19.59,10ZM23,18.85C21.22,20.86,15,26.1,15,26.1s-6.21-5.24-8-7.25S5.58,11.77,9,11.16c3-.53,6,2.62,6,2.62s3.06-3.15,6-2.62C24.45,11.77,24.69,16.87,23,18.85Z"/></g></g></svg>