<svg xmlns="http://www.w3.org/2000/svg" viewBox="0 0 58.2 58.2"><defs><style>.cls-1{fill:none;stroke:#fff;stroke-miterlimit:10;stroke-width:0.46px;}.cls-2{fill:#fff;}</style></defs><g id="Layer_2" data-name="Layer 2"><g id="mobile"><circle class="cls-1" cx="29.1" cy="29.1" r="28.87"/><path class="cls-2" d="M44.43,16.93,30,10.64a.62.62,0,0,0-.5,0L15.07,16.92a.64.64,0,0,0-.37.58v15A10.23,10.23,0,0,0,19,40.8l10,7.16a1.46,1.46,0,0,0,1.67,0l10-7.16a10.23,10.23,0,0,0,4.25-8.27v-15A.62.62,0,0,0,44.43,16.93Zm-.88,15.6a8.94,8.94,0,0,1-3.72,7.25l-10,7.16a.18.18,0,0,1-.2,0l-10-7.16A9,9,0,0,1,16,32.53V17.91l13.8-6,13.8,6Z"/><path class="cls-2" d="M20.14,28.59h0A8.73,8.73,0,0,0,20.91,30h0c.1.13.2.26.31.38Z"/><path class="cls-2" d="M41.92,18.57,30,13.38a.62.62,0,0,0-.5,0L17.58,18.57a.64.64,0,0,0-.37.57V32.53a7.66,7.66,0,0,0,3.2,6.23l9,6.44a.62.62,0,0,0,.73,0l9-6.44a7.72,7.72,0,0,0,3.2-6.23V19.14A.63.63,0,0,0,41.92,18.57ZM41,30.35v2.18a6.43,6.43,0,0,1-2.67,5.21l-8.62,6.18-8.61-6.18a6.44,6.44,0,0,1-2.68-5.21v-13l11.29-4.92L41,19.56v9.13l0,0Zm-6.76-9.72a5.75,5.75,0,0,0-4.53,2.14,5.73,5.73,0,0,0-4.53-2.14,5.11,5.11,0,0,0-5.5,5.52,6.59,6.59,0,0,0,.36,2.25l.06.18h0l1.1,1.82h0A12.61,12.61,0,0,0,22.8,32l.6.53c1.4,1.31,5.78,4.79,6,4.93a.6.6,0,0,0,.78,0c.19-.14,4.57-3.62,6-4.93L36.7,32a11.43,11.43,0,0,0,1.82-1.86l0-.05a7.21,7.21,0,0,0,.77-1.27h0c.06-.16.12-.32.17-.48a6.53,6.53,0,0,0,.33-2.15A5.11,5.11,0,0,0,34.28,20.63Zm3.39,8.81c-1.75,2-8,7.25-8,7.25s-6.2-5.24-7.95-7.25-1.48-7.08,1.92-7.69c3-.54,6,2.62,6,2.62s3.07-3.16,6-2.62C39.15,22.36,39.38,27.46,37.67,29.44Z"/></g></g></svg>