<svg xmlns="http://www.w3.org/2000/svg" viewBox="0 0 38.53 28.79"><defs><style>.cls-1{fill:#fff;}</style></defs><g id="Layer_2" data-name="Layer 2"><g id="mobile"><path class="cls-1" d="M19.92.75A13.85,13.85,0,1,0,33.76,14.6,13.86,13.86,0,0,0,19.92.75Zm0,26.72A12.87,12.87,0,1,1,32.79,14.6,12.89,12.89,0,0,1,19.92,27.47Z"/><path class="cls-1" d="M19.92,6a8.62,8.62,0,1,0,8.62,8.62A8.62,8.62,0,0,0,19.92,6Zm0,16.26a7.65,7.65,0,1,1,7.64-7.64,7.65,7.65,0,0,1-7.64,7.64Z"/><path class="cls-1" d="M4.8.41a.8.8,0,0,0-.81.8V4.47c0,.42-.14.56-.16.57s-.19-.19-.19-.62V1.21A.81.81,0,0,0,2,1.21v3.2c0,.44-.14.6-.18.62s-.17-.21-.17-.62V1.21A.8.8,0,0,0,.87.41.91.91,0,0,0,0,1.25V7.31A2.84,2.84,0,0,0,1.42,9.76V27.37a1.42,1.42,0,1,0,2.83,0V9.76A2.84,2.84,0,0,0,5.67,7.31V1.21A.86.86,0,0,0,4.8.41Zm.14,6.9a2.12,2.12,0,0,1-1.21,1.9l-.21.1V27.37a.69.69,0,0,1-1.37,0V9.31l-.21-.1A2.12,2.12,0,0,1,.73,7.31V1.25a.22.22,0,0,1,.14-.11.07.07,0,0,1,.07.07v3.2a1.73,1.73,0,0,0,.23.93.8.8,0,0,0,.68.43c.44,0,.92-.43.92-1.36V1.21a.07.07,0,0,1,.07-.07.07.07,0,0,1,.06.07V4.42a1.76,1.76,0,0,0,.24.93.82.82,0,0,0,.69.42c.43,0,.9-.41.9-1.3V1.21a.07.07,0,0,1,.07-.07.2.2,0,0,1,.14.08Z"/><path class="cls-1" d="M37.11,0c-1.59,0-2.36,2.38-2.36,7.27a62.54,62.54,0,0,0,1,6.35V27.37a1.42,1.42,0,1,0,2.83,0V1.42A1.42,1.42,0,0,0,37.11,0Zm.69,27.37a.69.69,0,0,1-1.37,0V13.51s-.94-4.92-.94-6.24a21.54,21.54,0,0,1,.41-4.77c.2-.8.57-1.77,1.22-1.77a.69.69,0,0,1,.69.69Z"/></g></g></svg>