<svg xmlns="http://www.w3.org/2000/svg" viewBox="0 0 58.2 58.2"><defs><style>.cls-1{fill:none;stroke:#fff;stroke-miterlimit:10;stroke-width:0.46px;}.cls-2{fill:#fff;}</style></defs><g id="Layer_2" data-name="Layer 2"><g id="mobile"><circle class="cls-1" cx="29.1" cy="29.1" r="28.87"/><path class="cls-2" d="M29.9,15.13A13.85,13.85,0,1,0,43.75,29,13.86,13.86,0,0,0,29.9,15.13Zm0,26.72A12.87,12.87,0,1,1,42.77,29,12.88,12.88,0,0,1,29.9,41.85Z"/><path class="cls-2" d="M29.9,20.36A8.62,8.62,0,1,0,38.52,29a8.63,8.63,0,0,0-8.62-8.62Zm0,16.26A7.64,7.64,0,1,1,37.54,29a7.64,7.64,0,0,1-7.64,7.64Z"/><path class="cls-2" d="M14.78,14.79a.8.8,0,0,0-.8.8v3.26c0,.43-.14.56-.16.57s-.2-.19-.2-.62V15.59a.81.81,0,0,0-1.61,0v3.2c0,.44-.14.6-.18.62s-.17-.21-.17-.62v-3.2a.8.8,0,0,0-.8-.8.91.91,0,0,0-.88.84v6.06a2.87,2.87,0,0,0,1.42,2.46v17.6a1.42,1.42,0,0,0,2.84,0V24.15a2.88,2.88,0,0,0,1.41-2.46v-6.1a.86.86,0,0,0-.87-.8Zm.14,6.9a2.09,2.09,0,0,1-1.21,1.9l-.21.1V41.75a.68.68,0,0,1-.68.69.69.69,0,0,1-.69-.69V23.69l-.21-.1a2.11,2.11,0,0,1-1.21-1.9V15.64a.19.19,0,0,1,.15-.11.07.07,0,0,1,.07.06v3.2a1.77,1.77,0,0,0,.22.94.79.79,0,0,0,.68.42c.44,0,.92-.43.92-1.36v-3.2a.07.07,0,0,1,.14,0V18.8a1.79,1.79,0,0,0,.23.94.83.83,0,0,0,.69.41c.43,0,.9-.4.9-1.3V15.59a.07.07,0,0,1,.07-.06.17.17,0,0,1,.14.07Z"/><path class="cls-2" d="M47.1,14.38c-1.59,0-2.37,2.38-2.37,7.27a62.54,62.54,0,0,0,1,6.35V41.75a1.42,1.42,0,0,0,2.84,0V15.8a1.43,1.43,0,0,0-1.42-1.42Zm.68,27.37a.68.68,0,0,1-.68.69.69.69,0,0,1-.69-.69V27.9s-.93-4.92-.93-6.25a21.55,21.55,0,0,1,.4-4.76c.2-.81.57-1.77,1.23-1.77a.67.67,0,0,1,.68.68Z"/></g></g></svg>