<svg xmlns="http://www.w3.org/2000/svg" viewBox="0 0 32.59 32.57"><defs><style>.cls-1{fill:#fff;}</style></defs><g id="Layer_2" data-name="Layer 2"><g id="mobile"><path class="cls-1" d="M31.66,32.57H.93A.93.93,0,0,1,0,31.64V29.78a.93.93,0,0,1,.93-.93H31.66a.93.93,0,0,1,.93.93v1.86a.93.93,0,0,1-.93.93ZM.93,29.78v1.86H31.66V29.78Z"/><path class="cls-1" d="M30.26,29.78H2.33a.47.47,0,0,1-.47-.46V21.87a3.26,3.26,0,0,1,3.26-3.26H27.47a3.26,3.26,0,0,1,3.26,3.26v7.45a.47.47,0,0,1-.47.46ZM2.79,28.85h27v-7a2.33,2.33,0,0,0-2.33-2.33H5.12a2.33,2.33,0,0,0-2.33,2.33Z"/><path class="cls-1" d="M25.61,26.29a3.73,3.73,0,0,1-2.62-1,2.92,2.92,0,0,0-4.08,0,3.84,3.84,0,0,1-5.23,0,2.92,2.92,0,0,0-4.08,0,3.84,3.84,0,0,1-5.23,0,2.86,2.86,0,0,0-2-.83.46.46,0,1,1,0-.93,3.77,3.77,0,0,1,2.62,1,2.92,2.92,0,0,0,4.07,0,3.83,3.83,0,0,1,5.24,0,2.9,2.9,0,0,0,4.07,0,3.83,3.83,0,0,1,5.24,0,2.9,2.9,0,0,0,4.07,0,3.77,3.77,0,0,1,2.62-1,.46.46,0,0,1,0,.93,2.86,2.86,0,0,0-2,.83,3.72,3.72,0,0,1-2.61,1Z"/><path class="cls-1" d="M27,19.54H5.59a.47.47,0,0,1-.47-.47v-7A2.33,2.33,0,0,1,7.45,9.76H25.14a2.33,2.33,0,0,1,2.33,2.33v7a.47.47,0,0,1-.47.47ZM6.05,18.61H26.54V12.09a1.4,1.4,0,0,0-1.4-1.4H7.45a1.4,1.4,0,0,0-1.4,1.4Z"/><path class="cls-1" d="M23.43,16.3a3,3,0,0,1-2.07-.82,2.12,2.12,0,0,0-3,0,3,3,0,0,1-4.15,0,2.12,2.12,0,0,0-3,0,3,3,0,0,1-4.15,0,2,2,0,0,0-1.49-.61.47.47,0,1,1,0-.93,3,3,0,0,1,2.07.81,2.12,2.12,0,0,0,3,0,3,3,0,0,1,4.15,0,2.12,2.12,0,0,0,3,0,3,3,0,0,1,4.15,0,2.12,2.12,0,0,0,3,0A3,3,0,0,1,27,13.94a.47.47,0,1,1,0,.93,2,2,0,0,0-1.49.61,3,3,0,0,1-2.08.82Z"/><path class="cls-1" d="M21.88,10.69H19.09a.47.47,0,0,1-.47-.46V4.64a.46.46,0,0,1,.47-.46h2.79a.46.46,0,0,1,.47.46v5.59a.47.47,0,0,1-.47.46Zm-2.33-.93h1.87V5.11H19.55Z"/><path class="cls-1" d="M13.5,10.69H10.71a.47.47,0,0,1-.47-.46V4.64a.46.46,0,0,1,.47-.46H13.5a.46.46,0,0,1,.47.46v5.59a.47.47,0,0,1-.47.46Zm-2.33-.93H13V5.11H11.17Z"/><path class="cls-1" d="M20.49,3.9a1.39,1.39,0,0,1-1.4-1.39,6.89,6.89,0,0,1,1-2.3.48.48,0,0,1,.79,0,6.89,6.89,0,0,1,1,2.3A1.39,1.39,0,0,1,20.49,3.9Zm0-2.5A4,4,0,0,0,20,2.51a.46.46,0,0,0,.93,0,4.34,4.34,0,0,0-.46-1.11Z"/><path class="cls-1" d="M20.49,5.11A.47.47,0,0,1,20,4.64V3.44a.46.46,0,0,1,.93,0v1.2a.47.47,0,0,1-.46.47Z"/><path class="cls-1" d="M12.1,3.9a1.39,1.39,0,0,1-1.39-1.39,6.89,6.89,0,0,1,1-2.3.48.48,0,0,1,.79,0,6.89,6.89,0,0,1,1,2.3A1.39,1.39,0,0,1,12.1,3.9Zm0-2.5a4.34,4.34,0,0,0-.46,1.11.46.46,0,0,0,.93,0A4,4,0,0,0,12.1,1.4Z"/><path class="cls-1" d="M12.1,5.11a.47.47,0,0,1-.46-.47V3.44a.46.46,0,1,1,.93,0v1.2a.47.47,0,0,1-.47.47Z"/></g></g></svg>