<svg xmlns="http://www.w3.org/2000/svg" viewBox="0 0 58.2 58.2"><defs><style>.cls-1{fill:none;stroke:#fff;stroke-miterlimit:10;stroke-width:0.46px;}.cls-2{fill:#fff;}</style></defs><g id="Layer_2" data-name="Layer 2"><g id="mobile"><circle class="cls-1" cx="29.1" cy="29.1" r="28.87"/><path class="cls-2" d="M44.62,43.52H13.89a.93.93,0,0,1-.93-.93V40.73a.94.94,0,0,1,.93-.94H44.62a.94.94,0,0,1,.93.94v1.86a.93.93,0,0,1-.93.93ZM13.89,40.73v1.86H44.62V40.73Z"/><path class="cls-2" d="M43.22,40.73H15.29a.47.47,0,0,1-.47-.47V32.81a3.26,3.26,0,0,1,3.26-3.26H40.43a3.27,3.27,0,0,1,3.26,3.26v7.45a.47.47,0,0,1-.47.47Zm-27.47-.94h27v-7a2.35,2.35,0,0,0-2.33-2.33H18.08a2.34,2.34,0,0,0-2.33,2.33Z"/><path class="cls-2" d="M38.57,37.23a3.73,3.73,0,0,1-2.62-1,2.92,2.92,0,0,0-4.08,0,3.83,3.83,0,0,1-5.24,0,2.9,2.9,0,0,0-4.07,0,3.83,3.83,0,0,1-5.24,0,2.86,2.86,0,0,0-2-.83.46.46,0,0,1,0-.93,3.72,3.72,0,0,1,2.61,1,2.92,2.92,0,0,0,4.08,0,3.84,3.84,0,0,1,5.23,0,2.92,2.92,0,0,0,4.08,0,3.85,3.85,0,0,1,5.24,0,2.9,2.9,0,0,0,4.07,0,3.77,3.77,0,0,1,2.62-1,.47.47,0,1,1,0,.93,2.9,2.9,0,0,0-2,.83,3.72,3.72,0,0,1-2.61,1Z"/><path class="cls-2" d="M40,30.48H18.55a.47.47,0,0,1-.47-.46V23a2.32,2.32,0,0,1,2.33-2.32H38.1A2.33,2.33,0,0,1,40.43,23v7a.47.47,0,0,1-.47.46ZM19,29.55H39.5V23a1.4,1.4,0,0,0-1.4-1.39H20.41A1.4,1.4,0,0,0,19,23Z"/><path class="cls-2" d="M36.39,27.24a3,3,0,0,1-2.08-.82,2.13,2.13,0,0,0-3,0,3,3,0,0,1-4.15,0,2.14,2.14,0,0,0-3,0,3,3,0,0,1-4.15,0,2.15,2.15,0,0,0-1.49-.61.47.47,0,1,1,0-.93,3,3,0,0,1,2.07.82,2.14,2.14,0,0,0,3,0,3,3,0,0,1,4.15,0,2.13,2.13,0,0,0,3,0,3.05,3.05,0,0,1,4.16,0,2.14,2.14,0,0,0,3,0A3,3,0,0,1,40,24.88a.47.47,0,1,1,0,.93,2.11,2.11,0,0,0-1.49.61,3,3,0,0,1-2.08.82Z"/><path class="cls-2" d="M34.84,21.64H32.05a.47.47,0,0,1-.47-.47V15.58a.47.47,0,0,1,.47-.46h2.79a.47.47,0,0,1,.47.46v5.59a.47.47,0,0,1-.47.47Zm-2.33-.93h1.87V16.05H32.51Z"/><path class="cls-2" d="M26.46,21.64H23.67a.47.47,0,0,1-.47-.47V15.58a.47.47,0,0,1,.47-.46h2.79a.47.47,0,0,1,.47.46v5.59a.47.47,0,0,1-.47.47Zm-2.33-.93H26V16.05H24.13Z"/><path class="cls-2" d="M33.44,14.85a1.4,1.4,0,0,1-1.39-1.4,6.89,6.89,0,0,1,1-2.3.48.48,0,0,1,.79,0,6.89,6.89,0,0,1,1,2.3,1.4,1.4,0,0,1-1.4,1.4Zm0-2.51A4.49,4.49,0,0,0,33,13.45a.47.47,0,1,0,.93,0,4.17,4.17,0,0,0-.47-1.11Z"/><path class="cls-2" d="M33.44,16.05a.47.47,0,0,1-.46-.47v-1.2a.46.46,0,1,1,.93,0v1.2a.47.47,0,0,1-.47.47Z"/><path class="cls-2" d="M25.06,14.85a1.4,1.4,0,0,1-1.39-1.4,6.89,6.89,0,0,1,1-2.3.48.48,0,0,1,.79,0,6.89,6.89,0,0,1,1,2.3,1.4,1.4,0,0,1-1.4,1.4Zm0-2.51a4.49,4.49,0,0,0-.46,1.11.47.47,0,1,0,.93,0,4.17,4.17,0,0,0-.47-1.11Z"/><path class="cls-2" d="M25.06,16.05a.47.47,0,0,1-.46-.47v-1.2a.47.47,0,0,1,.93,0v1.2a.47.47,0,0,1-.47.47Z"/></g></g></svg>