<svg xmlns="http://www.w3.org/2000/svg" viewBox="0 0 58.2 58.2"><defs><style>.cls-1{fill:none;stroke:#fff;stroke-miterlimit:10;stroke-width:0.46px;}.cls-2{fill:#fff;}</style></defs><g id="Layer_2" data-name="Layer 2"><g id="mobile"><circle class="cls-1" cx="29.1" cy="29.1" r="28.87"/><path class="cls-2" d="M34.83,15.22a.68.68,0,1,0-.67-.68.67.67,0,0,0,.67.68Z"/><path class="cls-2" d="M24,15.22a.68.68,0,1,0-.67-.68.67.67,0,0,0,.67.68Z"/><path class="cls-2" d="M38.58,44.43,35.34,40h1.8l4.28,4.46ZM24.25,41.32l1-1.35h8.44l1,1.35Zm-3.92,3.11H17.44L21.76,40h1.8l-3.23,4.46Zm-2.4-7.84V16.52a3.39,3.39,0,0,1,2.72-3.32,35.48,35.48,0,0,1,6.93-.69h3.58a36.3,36.3,0,0,1,7,.7,3.39,3.39,0,0,1,2.72,3.31V36.59a2,2,0,0,1-2,2H20a2,2,0,0,1-2-2ZM39,40a3.39,3.39,0,0,0,3.26-3.38V16.52a4.72,4.72,0,0,0-3.81-4.64,37.33,37.33,0,0,0-7.3-.72H27.58a36.82,36.82,0,0,0-7.2.71,4.76,4.76,0,0,0-3.8,4.65V36.59A3.38,3.38,0,0,0,19.88,40l-4.53,4.67a.68.68,0,0,0,.49,1.15h4.84a.68.68,0,0,0,.54-.28l2.05-2.84H35.63l2.06,2.84a.68.68,0,0,0,.54.28H43a.68.68,0,0,0,.62-.42.66.66,0,0,0-.13-.73L39,40Z"/><path class="cls-2" d="M20.63,17.92h8.12V27.8H20.63V17.92ZM38.22,27.8H30.1V17.92h8.12V27.8ZM20,29.15H38.89a.68.68,0,0,0,.68-.68V17.25a.68.68,0,0,0-.68-.68H20a.67.67,0,0,0-.68.68V28.47a.67.67,0,0,0,.68.68Z"/><path class="cls-2" d="M26.72,15.22h5.41a.68.68,0,1,0,0-1.35H26.72a.68.68,0,1,0,0,1.35Z"/><path class="cls-2" d="M36.86,35.24a1.36,1.36,0,1,1,1.36-1.36,1.36,1.36,0,0,1-1.36,1.36Zm0-4.06a2.71,2.71,0,1,0,2.71,2.7,2.7,2.7,0,0,0-2.71-2.7Z"/><path class="cls-2" d="M22,32.53a1.36,1.36,0,1,1-1.36,1.35A1.36,1.36,0,0,1,22,32.53Zm0,4.06a2.71,2.71,0,1,0-2.71-2.71A2.71,2.71,0,0,0,22,36.59Z"/><path class="cls-2" d="M32.13,31.85H26.72a.68.68,0,0,0,0,1.36h5.41a.68.68,0,0,0,0-1.36Z"/><path class="cls-2" d="M32.13,34.56H26.72a.68.68,0,1,0,0,1.35h5.41a.68.68,0,1,0,0-1.35Z"/></g></g></svg>