<svg xmlns="http://www.w3.org/2000/svg" viewBox="0 0 28.51 34.62"><defs><style>.cls-1{fill:#fff;}</style></defs><g id="Layer_2" data-name="Layer 2"><g id="mobile"><path class="cls-1" d="M19.67,4.06A.68.68,0,1,0,19,3.38a.69.69,0,0,0,.68.68Z"/><path class="cls-1" d="M8.85,4.06a.68.68,0,1,0-.68-.68.69.69,0,0,0,.68.68Z"/><path class="cls-1" d="M23.41,33.27l-3.23-4.46H22l4.27,4.46ZM9.09,30.16l1-1.35h8.44l1,1.35ZM5.17,33.27H2.27L6.6,28.81H8.4L5.17,33.27ZM2.76,25.43V5.36A3.39,3.39,0,0,1,5.48,2a35.58,35.58,0,0,1,6.94-.69H16A36.93,36.93,0,0,1,23,2a3.38,3.38,0,0,1,2.73,3.32V25.43a2,2,0,0,1-2,2H4.79a2,2,0,0,1-2-2ZM23.85,28.8a3.38,3.38,0,0,0,3.26-3.37V5.36A4.75,4.75,0,0,0,23.3.72,37.36,37.36,0,0,0,16,0H12.42a36.74,36.74,0,0,0-7.2.71A4.75,4.75,0,0,0,1.41,5.36V25.43a3.39,3.39,0,0,0,3.31,3.38L.19,33.48a.67.67,0,0,0,.49,1.14H5.51a.67.67,0,0,0,.55-.28l2.05-2.83H20.47l2.05,2.83a.67.67,0,0,0,.55.28h4.77a.67.67,0,0,0,.48-1.14L23.85,28.8Z"/><path class="cls-1" d="M5.47,6.76h8.11v9.88H5.47V6.76Zm17.58,9.88H14.94V6.76h8.11v9.88ZM4.79,18H23.73a.67.67,0,0,0,.67-.68V6.09a.67.67,0,0,0-.67-.68H4.79a.67.67,0,0,0-.67.68V17.31a.67.67,0,0,0,.67.68Z"/><path class="cls-1" d="M11.55,4.06H17A.68.68,0,0,0,17,2.7H11.55a.68.68,0,0,0,0,1.36Z"/><path class="cls-1" d="M21.7,24.07a1.35,1.35,0,1,1,1.35-1.35,1.34,1.34,0,0,1-1.35,1.35Zm0-4.05a2.71,2.71,0,1,0,2.7,2.7A2.71,2.71,0,0,0,21.7,20Z"/><path class="cls-1" d="M6.82,21.37a1.35,1.35,0,1,1-1.35,1.35,1.35,1.35,0,0,1,1.35-1.35Zm0,4.06a2.71,2.71,0,1,0-2.7-2.71,2.72,2.72,0,0,0,2.7,2.71Z"/><path class="cls-1" d="M17,20.69H11.55a.68.68,0,0,0,0,1.36H17a.68.68,0,0,0,0-1.36Z"/><path class="cls-1" d="M17,23.4H11.55a.68.68,0,0,0,0,1.35H17a.68.68,0,1,0,0-1.35Z"/></g></g></svg>